HIERARCHY
ROOT mixamorig:Hips
{
	OFFSET 0.000000 104.274902 0.000000
	CHANNELS 6 Xposition Yposition Zposition Xrotation Yrotation Zrotation
	JOINT mixamorig:Spine
	{
		OFFSET 0.000000 10.181549 0.131524
		CHANNELS 6 Xposition Yposition Zposition Xrotation Yrotation Zrotation
		JOINT mixamorig:Spine1
		{
			OFFSET 0.000000 9.893990 -1.470706
			CHANNELS 3 Xrotation Yrotation Zrotation
			JOINT mixamorig:Spine2
			{
				OFFSET 0.000000 9.220787 -1.370637
				CHANNELS 3 Xrotation Yrotation Zrotation
				JOINT mixamorig:Neck
				{
					OFFSET 0.000000 16.740372 -2.049022
					CHANNELS 6 Xposition Yposition Zposition Xrotation Yrotation Zrotation
					JOINT mixamorig:Head
					{
						OFFSET 0.000000 9.617859 1.684976
						CHANNELS 6 Xposition Yposition Zposition Xrotation Yrotation Zrotation
						JOINT mixamorig:HeadTop_End
						{
							OFFSET 0.000000 22.037384 7.501072
							CHANNELS 6 Xposition Yposition Zposition Xrotation Yrotation Zrotation
							End Site
							{
								OFFSET 0.000000 23.106567 -2.828246
							}
						}
					}
				}
				JOINT mixamorig:RightShoulder
				{
					OFFSET -4.570000 11.014877 -2.160840
					CHANNELS 6 Xposition Yposition Zposition Xrotation Yrotation Zrotation
					JOINT mixamorig:RightArm
					{
						OFFSET -10.592867 -0.524796 -2.232105
						CHANNELS 3 Xrotation Yrotation Zrotation
						JOINT mixamorig:RightForeArm
						{
							OFFSET -27.841497 0.000000 -0.000002
							CHANNELS 3 Xrotation Yrotation Zrotation
							JOINT mixamorig:RightHand
							{
								OFFSET -28.328812 0.000000 -0.000001
								CHANNELS 3 Xrotation Yrotation Zrotation
								JOINT mixamorig:RightHandThumb1
								{
									OFFSET -2.464798 -1.573990 2.681911
									CHANNELS 6 Xposition Yposition Zposition Xrotation Yrotation Zrotation
									JOINT mixamorig:RightHandThumb2
									{
										OFFSET -3.244781 -1.873383 1.873376
										CHANNELS 3 Xrotation Yrotation Zrotation
										JOINT mixamorig:RightHandThumb3
										{
											OFFSET -2.646263 -1.527817 1.527818
											CHANNELS 6 Xposition Yposition Zposition Xrotation Yrotation Zrotation
											JOINT mixamorig:RightHandThumb4
											{
												OFFSET -1.994591 -1.151581 1.151575
												CHANNELS 6 Xposition Yposition Zposition Xrotation Yrotation Zrotation
												End Site
												{
													OFFSET -1.860176 -1.142715 1.365483
												}
											}
										}
									}
								}
								JOINT mixamorig:RightHandIndex1
								{
									OFFSET -9.108299 -0.517883 2.259803
									CHANNELS 6 Xposition Yposition Zposition Xrotation Yrotation Zrotation
									JOINT mixamorig:RightHandIndex2
									{
										OFFSET -3.699997 0.000000 0.000000
										CHANNELS 3 Xrotation Yrotation Zrotation
										JOINT mixamorig:RightHandIndex3
										{
											OFFSET -2.850006 0.000000 0.000000
											CHANNELS 3 Xrotation Yrotation Zrotation
											JOINT mixamorig:RightHandIndex4
											{
												OFFSET -2.772194 0.000000 0.000000
												CHANNELS 3 Xrotation Yrotation Zrotation
												End Site
												{
													OFFSET -2.772202 0.000000 -0.000484
												}
											}
										}
									}
								}
								JOINT mixamorig:RightHandMiddle1
								{
									OFFSET -9.532501 0.000000 -0.000000
									CHANNELS 6 Xposition Yposition Zposition Xrotation Yrotation Zrotation
									JOINT mixamorig:RightHandMiddle2
									{
										OFFSET -3.699997 0.000000 0.000000
										CHANNELS 3 Xrotation Yrotation Zrotation
										JOINT mixamorig:RightHandMiddle3
										{
											OFFSET -2.949997 0.000000 0.000000
											CHANNELS 3 Xrotation Yrotation Zrotation
											JOINT mixamorig:RightHandMiddle4
											{
												OFFSET -2.946594 0.000000 0.000000
												CHANNELS 3 Xrotation Yrotation Zrotation
												End Site
												{
													OFFSET -2.946602 0.000000 -0.000982
												}
											}
										}
									}
								}
								JOINT mixamorig:RightHandRing1
								{
									OFFSET -9.103600 -0.043106 -1.865100
									CHANNELS 6 Xposition Yposition Zposition Xrotation Yrotation Zrotation
									JOINT mixamorig:RightHandRing2
									{
										OFFSET -3.379303 0.000000 0.000000
										CHANNELS 3 Xrotation Yrotation Zrotation
										JOINT mixamorig:RightHandRing3
										{
											OFFSET -2.889694 0.000000 0.000000
											CHANNELS 3 Xrotation Yrotation Zrotation
											JOINT mixamorig:RightHandRing4
											{
												OFFSET -2.638802 0.000000 0.000000
												CHANNELS 3 Xrotation Yrotation Zrotation
												End Site
												{
													OFFSET -2.638802 0.000000 0.004218
												}
											}
										}
									}
								}
								JOINT mixamorig:RightHandPinky1
								{
									OFFSET -8.076698 -0.486725 -3.806299
									CHANNELS 6 Xposition Yposition Zposition Xrotation Yrotation Zrotation
									JOINT mixamorig:RightHandPinky2
									{
										OFFSET -3.600006 0.000000 0.000000
										CHANNELS 3 Xrotation Yrotation Zrotation
										JOINT mixamorig:RightHandPinky3
										{
											OFFSET -2.099998 0.000000 0.000000
											CHANNELS 3 Xrotation Yrotation Zrotation
											JOINT mixamorig:RightHandPinky4
											{
												OFFSET -2.115791 0.000000 0.000000
												CHANNELS 3 Xrotation Yrotation Zrotation
												End Site
												{
													OFFSET -2.115799 0.000000 0.000174
												}
											}
										}
									}
								}
							}
						}
					}
				}
				JOINT mixamorig:LeftShoulder
				{
					OFFSET 4.570400 11.014679 -2.160816
					CHANNELS 6 Xposition Yposition Zposition Xrotation Yrotation Zrotation
					JOINT mixamorig:LeftArm
					{
						OFFSET 10.592373 -0.524597 -2.232116
						CHANNELS 3 Xrotation Yrotation Zrotation
						JOINT mixamorig:LeftForeArm
						{
							OFFSET 27.841488 0.000000 0.000001
							CHANNELS 3 Xrotation Yrotation Zrotation
							JOINT mixamorig:LeftHand
							{
								OFFSET 28.328808 0.000000 -0.000000
								CHANNELS 3 Xrotation Yrotation Zrotation
								JOINT mixamorig:LeftHandThumb1
								{
									OFFSET 2.466103 -1.576202 2.681698
									CHANNELS 6 Xposition Yposition Zposition Xrotation Yrotation Zrotation
									JOINT mixamorig:LeftHandThumb2
									{
										OFFSET 3.243317 -1.872528 1.872530
										CHANNELS 3 Xrotation Yrotation Zrotation
										JOINT mixamorig:LeftHandThumb3
										{
											OFFSET 2.647881 -1.528763 1.528754
											CHANNELS 6 Xposition Yposition Zposition Xrotation Yrotation Zrotation
											JOINT mixamorig:LeftHandThumb4
											{
												OFFSET 1.998924 -1.154083 1.154080
												CHANNELS 6 Xposition Yposition Zposition Xrotation Yrotation Zrotation
												End Site
												{
													OFFSET 1.884041 -1.149155 1.337651
												}
											}
										}
									}
								}
								JOINT mixamorig:LeftHandIndex1
								{
									OFFSET 9.109299 -0.518005 2.259900
									CHANNELS 6 Xposition Yposition Zposition Xrotation Yrotation Zrotation
									JOINT mixamorig:LeftHandIndex2
									{
										OFFSET 3.699997 0.000000 0.000000
										CHANNELS 3 Xrotation Yrotation Zrotation
										JOINT mixamorig:LeftHandIndex3
										{
											OFFSET 2.850006 0.000000 0.000000
											CHANNELS 3 Xrotation Yrotation Zrotation
											JOINT mixamorig:LeftHandIndex4
											{
												OFFSET 2.774895 0.000000 0.000000
												CHANNELS 3 Xrotation Yrotation Zrotation
												End Site
												{
													OFFSET 2.774902 0.000000 -0.000072
												}
											}
										}
									}
								}
								JOINT mixamorig:LeftHandMiddle1
								{
									OFFSET 9.533401 0.000000 0.000000
									CHANNELS 6 Xposition Yposition Zposition Xrotation Yrotation Zrotation
									JOINT mixamorig:LeftHandMiddle2
									{
										OFFSET 3.699997 0.000000 0.000000
										CHANNELS 3 Xrotation Yrotation Zrotation
										JOINT mixamorig:LeftHandMiddle3
										{
											OFFSET 2.949997 0.000000 0.000000
											CHANNELS 3 Xrotation Yrotation Zrotation
											JOINT mixamorig:LeftHandMiddle4
											{
												OFFSET 2.952896 0.000000 0.000000
												CHANNELS 3 Xrotation Yrotation Zrotation
												End Site
												{
													OFFSET 2.952904 0.000000 0.000165
												}
											}
										}
									}
								}
								JOINT mixamorig:LeftHandRing1
								{
									OFFSET 9.104500 -0.042999 -1.865101
									CHANNELS 6 Xposition Yposition Zposition Xrotation Yrotation Zrotation
									JOINT mixamorig:LeftHandRing2
									{
										OFFSET 3.149994 0.000000 0.000000
										CHANNELS 3 Xrotation Yrotation Zrotation
										JOINT mixamorig:LeftHandRing3
										{
											OFFSET 2.950005 0.000000 0.000000
											CHANNELS 3 Xrotation Yrotation Zrotation
											JOINT mixamorig:LeftHandRing4
											{
												OFFSET 2.644302 0.000000 0.000000
												CHANNELS 3 Xrotation Yrotation Zrotation
												End Site
												{
													OFFSET 2.644302 0.000000 0.000083
												}
											}
										}
									}
								}
								JOINT mixamorig:LeftHandPinky1
								{
									OFFSET 8.077805 -0.486893 -3.806302
									CHANNELS 6 Xposition Yposition Zposition Xrotation Yrotation Zrotation
									JOINT mixamorig:LeftHandPinky2
									{
										OFFSET 3.600006 0.000000 0.000000
										CHANNELS 3 Xrotation Yrotation Zrotation
										JOINT mixamorig:LeftHandPinky3
										{
											OFFSET 2.099998 0.000000 0.000000
											CHANNELS 3 Xrotation Yrotation Zrotation
											JOINT mixamorig:LeftHandPinky4
											{
												OFFSET 2.125496 0.000000 0.000000
												CHANNELS 3 Xrotation Yrotation Zrotation
												End Site
												{
													OFFSET 2.125504 0.000000 -0.001254
												}
											}
										}
									}
								}
							}
						}
					}
				}
			}
		}
	}
	JOINT mixamorig:RightUpLeg
	{
		OFFSET -8.207800 -6.751701 -1.599544
		CHANNELS 6 Xposition Yposition Zposition Xrotation Yrotation Zrotation
		JOINT mixamorig:RightLeg
		{
			OFFSET 0.000004 -44.370152 0.345934
			CHANNELS 3 Xrotation Yrotation Zrotation
			JOINT mixamorig:RightFoot
			{
				OFFSET 0.000004 -44.423664 -3.043535
				CHANNELS 3 Xrotation Yrotation Zrotation
				JOINT mixamorig:RightToeBase
				{
					OFFSET 0.000001 -8.728691 10.710592
					CHANNELS 3 Xrotation Yrotation Zrotation
					JOINT mixamorig:RightToe_End
					{
						OFFSET 0.000000 -0.000665 9.278101
						CHANNELS 3 Xrotation Yrotation Zrotation
						End Site
						{
							OFFSET 0.000000 -0.000665 9.278103
						}
					}
				}
			}
		}
	}
	JOINT mixamorig:LeftUpLeg
	{
		OFFSET 8.207800 -6.751701 -1.599544
		CHANNELS 6 Xposition Yposition Zposition Xrotation Yrotation Zrotation
		JOINT mixamorig:LeftLeg
		{
			OFFSET 0.000004 -44.370037 0.346940
			CHANNELS 3 Xrotation Yrotation Zrotation
			JOINT mixamorig:LeftFoot
			{
				OFFSET 0.000004 -44.423611 -3.044388
				CHANNELS 3 Xrotation Yrotation Zrotation
				JOINT mixamorig:LeftToeBase
				{
					OFFSET 0.000001 -8.728690 10.710592
					CHANNELS 3 Xrotation Yrotation Zrotation
					JOINT mixamorig:LeftToe_End
					{
						OFFSET 0.000000 -0.000680 9.278101
						CHANNELS 3 Xrotation Yrotation Zrotation
						End Site
						{
							OFFSET 0.000000 -0.000680 9.278101
						}
					}
				}
			}
		}
	}
}
MOTION
Frames: 4
Frame Time: 0.033333
-0.003935 79.402008 0.714357 -12.522990 0.224210 -4.347821 0.000000 10.181545 0.131526 18.007743 2.451483 0.333583 6.363809 0.964538 0.288655 6.362585 0.984462 0.281406 0.000000 16.740381 -2.049019 2.888960 -1.837454 6.074635 -0.000000 9.617854 1.684969 13.300436 0.078753 -2.340972 0.000000 22.037354 7.501078 -0.000002 -0.000000 -0.000000 -4.570001 11.014869 -2.160840 0.914669 10.176990 4.343247 -89.236900 34.810097 73.932392 0.000009 47.947160 0.000044 -26.318331 -27.216525 -25.152824 -2.464801 -1.573982 2.681918 2.145367 -10.236822 3.877799 25.742903 -30.849178 6.867824 -2.646257 -1.527817 1.527836 36.999784 -53.876993 19.247207 -1.994606 -1.151595 1.151573 0.000000 -0.000004 0.000003 -9.108294 -0.517897 2.259815 0.291444 -3.776172 4.588090 0.022894 -0.564906 4.640607 0.033170 0.679618 -5.585686 0.000000 0.000000 -0.000000 -9.532500 0.000005 0.000011 6.632664 -6.941214 87.721807 9.552855 -6.443803 112.064669 9.369709 -6.505912 110.466623 -0.000001 0.000000 0.000004 -9.103601 -0.043097 -1.865087 1.825072 -7.186880 92.600310 8.435738 -6.787909 102.391298 8.711730 -6.714043 104.753498 0.000000 0.000000 0.000000 -8.076710 -0.486716 -3.806293 -3.117227 -7.760242 94.479705 8.152143 -6.843643 100.001974 10.957099 -5.679749 125.303440 0.000000 -0.000000 0.000001 4.570400 11.014705 -2.160813 0.586879 -2.553416 -9.470589 -47.368800 -30.531168 -81.423272 -0.000024 -12.046078 -0.000008 45.771194 -14.037361 54.027356 2.466106 -1.576205 2.681697 2.469791 3.080900 2.354597 5.803998 8.429682 -3.269105 2.647880 -1.528749 1.528750 1.339552 18.462981 -3.357705 1.998932 -1.154089 1.154072 0.000001 -0.000004 -0.000000 9.109297 -0.518024 2.259894 -1.620431 -4.338976 -17.243084 1.140759 3.800984 -33.402299 0.003010 -0.203670 1.687843 -0.000002 0.000001 -0.000002 9.533397 0.000004 -0.000003 -0.391338 -1.730332 -9.770724 1.067824 3.688223 -32.285287 0.066345 -0.955423 7.943112 0.000002 0.000001 -0.000001 9.104510 -0.042997 -1.865107 0.279865 2.045964 -11.909108 0.312116 2.053470 -17.284069 0.066353 -0.955440 7.943116 -0.000000 0.000000 -0.000001 8.077808 -0.486883 -3.806304 1.819733 11.116894 -9.234957 0.238418 -2.249610 -15.645967 0.003576 0.222455 -1.843573 0.000002 0.000002 -0.000003 -8.207802 -6.751722 -1.599550 -49.647129 -3.794468 -8.845273 53.634644 2.911524 0.798615 6.788351 -0.005930 4.691905 0.388949 0.000002 -0.000003 0.000000 -0.000000 -0.000000 8.207801 -6.751712 -1.599544 -52.146374 0.561128 7.560443 53.949216 -3.128661 4.692624 9.752474 0.003084 -3.730356 -3.160796 -0.000003 0.000000 -0.000001 -0.000000 0.000000 
-0.005990 79.406448 0.711630 -12.548945 0.207467 -4.341098 -0.000000 10.181563 0.131530 18.005803 2.424577 0.353707 6.363959 0.951663 0.292933 6.362833 0.970925 0.285843 -0.000001 16.740362 -2.049026 2.896604 -1.812652 6.009968 0.000001 9.617855 1.684967 13.131297 0.096292 -2.381717 0.000000 22.037384 7.501068 0.000003 0.000000 -0.000000 -4.570002 11.014886 -2.160844 0.907026 10.194041 4.400500 -89.702568 34.716021 74.284666 -0.000048 47.989046 0.000074 -25.675193 -25.555508 -24.841810 -2.464784 -1.574006 2.681916 1.969037 -9.578410 2.836866 25.392910 -30.282883 6.770995 -2.646271 -1.527817 1.527807 33.350943 -52.217776 16.895815 -1.994597 -1.151582 1.151573 0.000001 -0.000005 -0.000000 -9.108310 -0.517884 2.259813 0.259710 -3.262882 4.859378 0.024166 -0.580329 4.767604 0.033989 0.688024 -5.655082 0.000001 -0.000000 -0.000000 -9.532515 0.000002 0.000001 6.847293 -6.948033 88.445827 9.650638 -6.403528 112.938804 9.492995 -6.459331 111.557118 0.000000 0.000000 0.000005 -9.103589 -0.043098 -1.865096 2.655222 -7.206393 93.306934 8.530380 -6.766524 103.193360 8.825467 -6.683689 105.727667 0.000001 -0.000000 0.000001 -8.076691 -0.486726 -3.806300 -1.693899 -7.746363 95.095932 8.237709 -6.828098 100.720777 11.055182 -5.609328 126.300730 0.000000 -0.000000 0.000004 4.570402 11.014683 -2.160818 0.587056 -2.554312 -9.491410 -47.361269 -30.475163 -81.382728 0.000012 -11.956435 0.000008 45.738437 -14.110828 54.067771 2.466101 -1.576208 2.681695 2.469790 3.080898 2.354599 5.804003 8.429681 -3.269105 2.647882 -1.528730 1.528750 1.339552 18.462988 -3.357706 1.998921 -1.154092 1.154082 -0.000003 0.000000 0.000001 9.109293 -0.518018 2.259899 -1.620429 -4.338975 -17.243086 1.140755 3.800984 -33.402296 0.003013 -0.203668 1.687843 0.000001 0.000001 0.000003 9.533405 0.000003 -0.000002 -0.391333 -1.730332 -9.770724 1.067830 3.688222 -32.285293 0.066346 -0.955422 7.943110 -0.000003 -0.000000 -0.000002 9.104509 -0.042999 -1.865104 0.279866 2.045964 -11.909110 0.312109 2.053469 -17.284067 0.066351 -0.955439 7.943113 0.000000 0.000001 -0.000001 8.077803 -0.486898 -3.806302 1.819733 11.116893 -9.234957 0.238419 -2.249609 -15.645969 0.003576 0.222456 -1.843573 -0.000003 -0.000002 -0.000001 -8.207802 -6.751698 -1.599543 -49.618964 -3.788132 -8.835289 53.625980 2.922799 0.791665 6.793264 -0.005710 4.691747 0.387564 0.000000 0.000000 0.000000 -0.000000 0.000000 8.207801 -6.751700 -1.599554 -52.114026 0.578707 7.575284 53.940900 -3.132063 4.687594 9.753328 0.003057 -3.729420 -3.161204 0.000001 -0.000001 -0.000001 -0.000000 0.000000 
-0.004526 79.410561 0.711145 -12.571744 0.194510 -4.341935 0.000000 10.181551 0.131526 17.993666 2.390868 0.379812 6.361808 0.935518 0.299054 6.360787 0.954053 0.292211 -0.000001 16.740370 -2.049017 2.881567 -1.780064 5.899204 -0.000000 9.617827 1.684974 12.974560 0.087004 -2.383116 -0.000000 22.037369 7.501076 0.000001 -0.000000 0.000000 -4.570003 11.014888 -2.160839 0.892285 10.216008 4.507310 -90.212230 34.435932 74.797859 -0.000027 48.110425 0.000051 -23.869187 -22.785847 -24.231051 -2.464797 -1.573999 2.681902 1.562899 -7.460678 -0.456877 24.292399 -28.468573 6.477221 -2.646261 -1.527784 1.527825 23.070301 -46.295490 10.508123 -1.994586 -1.151577 1.151574 0.000002 -0.000005 -0.000002 -9.108304 -0.517883 2.259791 0.128954 -1.625780 5.727132 0.028439 -0.629544 5.173250 0.036700 0.714879 -5.876628 0.000001 0.000001 0.000000 -9.532514 0.000003 -0.000002 6.825802 -6.950868 87.109487 9.469691 -6.476693 111.325383 9.265535 -6.545565 109.544363 -0.000002 0.000001 0.000003 -9.103599 -0.043117 -1.865112 3.317254 -7.079160 92.010134 8.355483 -6.804910 101.712998 8.615614 -6.740225 103.929593 -0.000001 0.000002 0.000003 -8.076708 -0.486716 -3.806300 -0.354613 -7.475466 94.005615 8.079631 -6.855926 99.394074 10.873164 -5.737959 124.459830 0.000001 -0.000002 0.000002 4.570402 11.014681 -2.160815 0.587344 -2.557969 -9.528935 -47.320097 -30.378694 -81.314447 0.000001 -11.909864 0.000010 45.749201 -14.188695 54.081796 2.466095 -1.576194 2.681696 2.469786 3.080903 2.354604 5.804001 8.429680 -3.269107 2.647881 -1.528739 1.528754 1.339550 18.462983 -3.357706 1.998917 -1.154094 1.154084 0.000000 0.000003 -0.000000 9.109304 -0.517988 2.259903 -1.620437 -4.338975 -17.243082 1.140755 3.800984 -33.402292 0.003012 -0.203671 1.687849 -0.000000 -0.000002 0.000002 9.533399 0.000003 0.000002 -0.391338 -1.730333 -9.770723 1.067824 3.688222 -32.285287 0.066345 -0.955422 7.943110 -0.000001 0.000000 -0.000001 9.104510 -0.042998 -1.865101 0.279868 2.045963 -11.909108 0.312112 2.053470 -17.284070 0.066356 -0.955438 7.943114 -0.000001 -0.000001 -0.000000 8.077798 -0.486885 -3.806300 1.819733 11.116894 -9.234957 0.238418 -2.249610 -15.645969 0.003579 0.222457 -1.843574 0.000004 -0.000001 -0.000001 -8.207801 -6.751715 -1.599537 -49.589745 -3.777193 -8.816643 53.616712 2.921861 0.781144 6.798308 -0.005065 4.701993 0.384688 -0.000001 -0.000000 -0.000000 -0.000000 0.000000 8.207800 -6.751705 -1.599551 -52.088016 0.594198 7.592355 53.938940 -3.139492 4.683609 9.750356 0.003333 -3.722788 -3.162188 0.000003 0.000000 0.000000 -0.000001 0.000000 
-0.000379 79.411278 0.714365 -12.589918 0.177187 -4.350734 0.000000 10.181552 0.131525 17.978764 2.347428 0.405649 6.359654 0.915473 0.305729 6.358713 0.933586 0.299171 -0.000001 16.740391 -2.049019 2.838494 -1.739738 5.754287 -0.000000 9.617846 1.684975 12.783239 0.071051 -2.386513 -0.000000 22.037354 7.501063 0.000001 0.000000 -0.000000 -4.570001 11.014893 -2.160839 0.864269 10.240860 4.704961 -90.870285 33.930030 75.608937 -0.000033 47.987000 0.000052 -20.550782 -18.538095 -23.487318 -2.464795 -1.574000 2.681917 1.400588 -4.114307 -5.584726 22.606437 -25.589439 6.058151 -2.646273 -1.527792 1.527814 10.431532 -35.370842 3.206912 -1.994601 -1.151581 1.151569 -0.000001 0.000001 -0.000002 -9.108313 -0.517865 2.259809 -0.168618 0.947881 7.103903 0.035913 -0.707202 5.813295 0.041198 0.757233 -6.226226 0.000001 0.000000 -0.000000 -9.532516 -0.000004 0.000018 6.589058 -6.948465 84.026087 9.044408 -6.625954 107.599317 8.730354 -6.712723 104.905244 0.000001 0.000000 -0.000000 -9.103611 -0.043110 -1.865084 3.792604 -6.895500 89.017808 7.949364 -6.876068 98.304181 8.126165 -6.844389 99.789289 -0.000000 -0.000002 0.000000 -8.076717 -0.486719 -3.806286 0.806820 -7.107784 91.472140 7.715040 -6.906006 96.351471 10.440275 -6.010672 120.232066 0.000001 -0.000003 0.000003 4.570402 11.014688 -2.160813 0.587684 -2.561358 -9.572610 -47.161497 -30.245915 -81.172126 -0.000002 -12.065567 -0.000001 45.765273 -14.210072 54.011708 2.466096 -1.576211 2.681700 2.469793 3.080902 2.354601 5.804003 8.429683 -3.269101 2.647880 -1.528726 1.528749 1.339556 18.462983 -3.357705 1.998925 -1.154096 1.154073 -0.000001 0.000005 -0.000000 9.109293 -0.518003 2.259901 -1.620430 -4.338975 -17.243087 1.140757 3.800984 -33.402296 0.003013 -0.203670 1.687847 -0.000001 -0.000000 -0.000002 9.533401 0.000004 0.000005 -0.391334 -1.730332 -9.770725 1.067824 3.688221 -32.285287 0.066348 -0.955423 7.943109 -0.000002 -0.000001 0.000001 9.104497 -0.042996 -1.865097 0.279871 2.045964 -11.909110 0.312115 2.053470 -17.284069 0.066351 -0.955439 7.943117 -0.000001 -0.000000 0.000001 8.077798 -0.486881 -3.806296 1.819736 11.116897 -9.234958 0.238422 -2.249611 -15.645967 0.003577 0.222457 -1.843574 0.000001 0.000001 -0.000001 -8.207802 -6.751705 -1.599541 -49.566953 -3.760333 -8.786169 53.614898 2.912888 0.768695 6.800152 -0.004364 4.718893 0.380718 -0.000003 0.000001 0.000000 -0.000000 0.000000 8.207798 -6.751705 -1.599548 -52.075476 0.609500 7.619359 53.953181 -3.148116 4.678527 9.738534 0.004067 -3.712986 -3.163258 0.000002 0.000000 -0.000001 -0.000000 0.000000 
